<?xml version="1.0" standalone="no"?>
<!DOCTYPE svg PUBLIC "-//W3C//DTD SVG 20010904//EN"
 "http://www.w3.org/TR/2001/REC-SVG-20010904/DTD/svg10.dtd">
<svg version="1.0" xmlns="http://www.w3.org/2000/svg"
 width="256.000000pt" height="256.000000pt" viewBox="0 0 256.000000 256.000000"
 preserveAspectRatio="xMidYMid meet">
<metadata>
Created by potrace 1.16, written by Peter Selinger 2001-2019
</metadata>
<g transform="translate(0.000000,256.000000) scale(0.100000,-0.100000)"
fill="#000000" stroke="none">
<path d="M1 2408 l0 -153 24 45 c13 25 28 54 34 65 26 54 174 172 237 188 10
2 -52 5 -138 6 l-158 1 1 -152z"/>
<path d="M405 2549 c-21 -5 -45 -7 -53 -4 -8 3 -10 0 -6 -7 5 -7 0 -9 -14 -6
-12 4 -20 3 -18 -1 3 -4 -15 -17 -40 -29 -25 -13 -42 -17 -39 -11 6 8 2 8 -13
0 -12 -6 -24 -17 -28 -24 -5 -7 -1 -7 12 3 27 20 7 0 -51 -51 l-50 -43 37 40
c21 22 38 43 38 47 0 12 -75 -72 -75 -85 -1 -19 -45 -88 -57 -88 -5 0 -6 -4
-3 -10 3 -5 1 -10 -5 -10 -6 0 -9 -4 -6 -9 9 -13 -4 -42 -15 -35 -6 3 -7 -6
-4 -23 5 -21 4 -24 -4 -13 -7 11 -10 -260 -10 -908 0 -659 3 -921 10 -916 8 4
9 -1 4 -16 -5 -17 -4 -21 6 -15 9 6 11 3 6 -8 -3 -10 -2 -17 3 -17 5 0 6 -7 3
-17 -5 -12 -3 -14 7 -8 9 5 11 4 6 -3 -4 -7 -2 -12 4 -12 6 0 8 -5 5 -10 -3
-6 24 -42 62 -80 37 -39 71 -78 75 -88 5 -13 7 -14 8 -2 0 11 7 8 21 -10 11
-14 17 -19 13 -11 -5 9 -3 12 5 7 6 -4 8 -12 5 -18 -5 -7 -1 -9 9 -5 10 3 17
2 17 -4 0 -6 4 -7 10 -4 5 3 10 -2 10 -12 0 -15 2 -16 10 -3 7 12 10 12 10 1
0 -8 6 -11 16 -7 10 4 13 2 8 -6 -5 -7 0 -9 14 -6 12 4 20 2 16 -3 -3 -5 373
-9 918 -9 648 1 919 4 908 11 -12 9 -10 10 8 6 12 -3 22 -2 22 2 0 13 51 32
63 25 7 -4 9 -4 5 1 -4 4 10 19 30 32 102 68 177 167 217 287 l25 76 -4 862
c-2 475 -6 875 -8 890 -1 14 -7 24 -12 20 -5 -3 -7 5 -4 16 4 12 3 20 -1 17
-10 -6 -43 64 -35 76 3 5 2 8 -3 7 -11 -3 -135 127 -127 134 3 3 -3 5 -13 5
-9 -1 -18 3 -18 10 0 6 -4 15 -9 20 -5 5 -6 3 -2 -4 10 -18 -6 -16 -30 3 -17
14 -17 15 -1 10 11 -4 16 -2 12 5 -4 5 -15 7 -25 4 -20 -6 -72 14 -65 25 2 4
-8 5 -23 3 -20 -4 -23 -2 -12 6 19 13 -1718 13 -1775 0z m1236 -113 c53 -8 63
-11 87 -26 12 -8 22 -22 22 -32 0 -9 4 -18 10 -20 28 -9 17 -139 -13 -159 -12
-9 124 -416 308 -918 31 -85 55 -164 53 -177 -2 -15 -56 -61 -183 -156 -202
-151 -221 -163 -238 -150 -7 4 -31 14 -54 21 -23 6 -45 16 -48 22 -4 5 -4 32
0 60 7 49 9 52 104 126 130 103 171 143 171 169 0 11 -15 63 -34 115 -19 52
-56 155 -82 229 -26 74 -48 136 -49 138 -1 1 -12 -26 -23 -60 -12 -35 -69
-198 -127 -363 -154 -435 -228 -649 -254 -738 -27 -92 -48 -100 -69 -27 -51
172 -94 304 -164 500 -213 603 -241 680 -247 680 -10 0 -173 -467 -169 -486 2
-10 60 -64 130 -119 69 -55 129 -107 133 -115 14 -29 65 -225 65 -247 0 -14
-6 -23 -16 -23 -9 0 -107 68 -217 152 -288 216 -337 257 -337 276 0 18 60 195
238 697 136 384 154 429 175 433 9 2 22 -8 30 -25 23 -46 186 -496 308 -850
103 -301 108 -310 123 -248 7 28 173 506 305 878 77 215 90 259 74 244 -9 -9
-112 50 -140 80 -50 52 -38 108 25 118 20 4 42 8 47 9 6 2 13 2 16 0 3 -2 21
-6 40 -8z m73 -1707 c21 -16 26 -29 26 -64 0 -58 -41 -95 -106 -95 l-44 0 0
-45 c0 -40 3 -47 28 -58 25 -11 23 -12 -37 -15 -67 -3 -87 3 -58 19 15 9 17
26 17 130 0 97 -3 121 -15 125 -37 15 -8 24 74 24 74 0 92 -3 115 -21z m126
-64 c0 -19 5 -19 35 1 29 19 70 10 61 -13 -3 -8 -6 -18 -6 -23 0 -4 -18 -6
-39 -3 l-39 5 -4 -72 c-3 -79 -2 -83 26 -93 32 -12 8 -21 -47 -18 -59 3 -69 8
-44 22 25 15 25 153 0 168 -26 14 -3 32 50 40 4 0 7 -6 7 -14z m274 3 c54 -24
76 -93 50 -157 -29 -74 -116 -95 -176 -43 -27 25 -32 36 -32 80 -2 96 78 157
158 120z"/>
<path d="M2027 632 c-24 -27 -23 -123 1 -145 24 -22 55 -21 75 1 22 24 23 110
1 140 -18 27 -55 29 -77 4z"/>
<path d="M2270 2550 c84 -26 191 -115 235 -195 15 -27 31 -54 35 -60 4 -5 10
-19 13 -30 2 -11 5 51 6 138 l1 157 -157 -1 c-92 0 -147 -4 -133 -9z"/>
<path d="M0 157 l0 -157 163 1 c89 0 155 3 147 6 -109 35 -221 132 -273 234
l-37 74 0 -158z"/>
</g>
</svg>
